HIERARCHY
ROOT Hips
{
	OFFSET 0.000000 0.000000 0.000000
	CHANNELS 6 Xposition Yposition Zposition Zrotation Yrotation Xrotation 
	JOINT LHipJoint
	{
		OFFSET 0.000000 0.000000 0.000000
		CHANNELS 3 Zrotation Yrotation Xrotation
		JOINT LeftUpLeg
		{
			OFFSET 1.363060 -1.794630 0.839290
			CHANNELS 3 Zrotation Yrotation Xrotation
			JOINT LeftLeg
			{
				OFFSET 2.448110 -6.726130 0.000000
				CHANNELS 3 Zrotation Yrotation Xrotation
				JOINT LeftFoot
				{
					OFFSET 2.562200 -7.039590 0.000000
					CHANNELS 3 Zrotation Yrotation Xrotation
					JOINT LeftToeBase
					{
						OFFSET 0.157640 -0.433110 2.322550
						CHANNELS 3 Zrotation Yrotation Xrotation
						End Site
						{
							OFFSET 0.000000 0.000000 0.000000
						}
					}
				}
			}
		}
	}
	JOINT RHipJoint
	{
		OFFSET 0.000000 0.000000 0.000000
		CHANNELS 3 Zrotation Yrotation Xrotation
		JOINT RightUpLeg
		{
			OFFSET -1.305520 -1.794630 0.839290
			CHANNELS 3 Zrotation Yrotation Xrotation
			JOINT RightLeg
			{
				OFFSET -2.542530 -6.985550 0.000000
				CHANNELS 3 Zrotation Yrotation Xrotation
				JOINT RightFoot
				{
					OFFSET -2.568260 -7.056230 0.000000
					CHANNELS 3 Zrotation Yrotation Xrotation
					JOINT RightToeBase
					{
						OFFSET -0.164730 -0.452590 2.363150
						CHANNELS 3 Zrotation Yrotation Xrotation
						End Site
						{
							OFFSET 0.000000 0.000000 0.000000
						}
					}
				}
			}
		}
	}
	JOINT LowerBack
	{
		OFFSET 0.000000 0.000000 0.000000
		CHANNELS 3 Zrotation Yrotation Xrotation
		JOINT Spine
		{
			OFFSET 0.028270 2.035590 -0.193380
			CHANNELS 3 Zrotation Yrotation Xrotation
			JOINT Spine1
			{
				OFFSET 0.056720 2.048850 -0.042750
				CHANNELS 3 Zrotation Yrotation Xrotation
				JOINT Neck
				{
					OFFSET 0.000000 0.000000 0.000000
					CHANNELS 3 Zrotation Yrotation Xrotation
					JOINT Neck1
					{
						OFFSET -0.054170 1.746240 0.172020
						CHANNELS 3 Zrotation Yrotation Xrotation
						JOINT Head
						{
							OFFSET 0.104070 1.761360 -0.123970
							CHANNELS 3 Zrotation Yrotation Xrotation
							End Site
							{
								OFFSET 0.000000 0.000000 0.000000
							}
						}
					}
				}
				JOINT LeftShoulder
				{
					OFFSET 0.000000 0.000000 0.000000
					CHANNELS 3 Zrotation Yrotation Xrotation
					JOINT LeftArm
					{
						OFFSET 3.362410 1.200890 -0.311210
						CHANNELS 3 Zrotation Yrotation Xrotation
						JOINT LeftForeArm
						{
							OFFSET 4.983000 -0.000000 -0.000000
							CHANNELS 3 Zrotation Yrotation Xrotation
							JOINT LeftHand
							{
								OFFSET 3.483560 -0.000000 -0.000000
								CHANNELS 3 Zrotation Yrotation Xrotation
								JOINT LeftFingerBase
								{
									OFFSET 0.000000 0.000000 0.000000
									CHANNELS 3 Zrotation Yrotation Xrotation
									JOINT LeftHandIndex1
									{
										OFFSET 0.715260 -0.000000 -0.000000
										CHANNELS 3 Zrotation Yrotation Xrotation
										End Site
										{
											OFFSET 0.000000 0.000000 0.000000
										}
									}
								}
								JOINT LThumb
								{
									OFFSET 0.000000 0.000000 0.000000
									CHANNELS 3 Zrotation Yrotation Xrotation
									End Site
									{
										OFFSET 0.000000 0.000000 0.000000
									}
								}
							}
						}
					}
				}
				JOINT RightShoulder
				{
					OFFSET 0.000000 0.000000 0.000000
					CHANNELS 3 Zrotation Yrotation Xrotation
					JOINT RightArm
					{
						OFFSET -3.136600 1.374050 -0.404650
						CHANNELS 3 Zrotation Yrotation Xrotation
						JOINT RightForeArm
						{
							OFFSET -5.241900 -0.000000 -0.000000
							CHANNELS 3 Zrotation Yrotation Xrotation
							JOINT RightHand
							{
								OFFSET -3.444170 -0.000000 -0.000000
								CHANNELS 3 Zrotation Yrotation Xrotation
								JOINT RightFingerBase
								{
									OFFSET 0.000000 0.000000 0.000000
									CHANNELS 3 Zrotation Yrotation Xrotation
									JOINT RightHandIndex1
									{
										OFFSET -0.622530 -0.000000 -0.000000
										CHANNELS 3 Zrotation Yrotation Xrotation
										End Site
										{
											OFFSET 0.000000 0.000000 0.000000
										}
									}
								}
								JOINT RThumb
								{
									OFFSET 0.000000 0.000000 0.000000
									CHANNELS 3 Zrotation Yrotation Xrotation
									End Site
									{
										OFFSET 0.000000 0.000000 0.000000
									}
								}
							}
						}
					}
				}
			}
		}
	}
}
MOTION
Frames: 7
Frame Time: 0.008333
-5.017231 17.055698 -1.509725 6.659782 -80.905333 -5.910822 -10.551550 3.545336 3.307307 0.571057 9.703514 -10.064967 -1.556607 -0.074456 10.397446 0.892121 6.640723 0.312235 0.887000 0.000000 -52.585600 9.683257 -2.334030 0.387155 11.086161 -14.637409 -5.351211 1.787660 0.168220 15.410518 -2.662752 -11.340888 -12.452087 0.654400 0.000000 -55.891700 -3.802271 -3.001838 -6.093517 -1.307485 -2.863996 -3.371867 -5.465045 -2.908329 2.620057 10.913829 -19.793943 -9.866002 -1.526233 -0.089245 -0.514940 0.000000 0.000000 0.000000 2.718277 15.525380 1.643077 -38.195433 8.317334 7.732110 -2.582362 -50.035117 -0.015392 -8.276629 7.547361 -0.543320 -0.086039 -0.036622 -0.000000 0.000000 0.000000 0.000000 0.000000 0.000000 0.000000 13.092767 -15.603614 -0.298480 50.618096 4.486501 3.401255 1.699137 49.872737 0.002069 -2.390082 3.202499 -0.071866 0.106300 -0.137637 -0.000000 0.000000 0.000000 0.000000 0.000000 0.000000 0.000000 
-5.013351 17.051603 -1.528512 7.023039 -81.169286 -6.393321 -10.549061 3.556972 3.250144 0.630049 9.916461 -10.109673 -1.548455 -0.035476 10.804360 0.909955 6.759327 0.305622 0.895800 -0.000000 -52.700500 9.698647 -2.309478 0.375162 11.060319 -14.572882 -5.313759 1.781020 0.147974 15.640573 -2.636854 -11.186796 -12.535243 0.672500 -0.000001 -55.939800 -3.768734 -3.049770 -6.038476 -1.293895 -2.914365 -3.364315 -5.456056 -2.957886 2.615367 10.990852 -19.991045 -9.906409 -1.527105 -0.088942 -0.524316 0.000000 0.000000 0.000000 2.783178 15.493909 1.603043 -38.945287 8.916459 7.771959 -2.703208 -48.788097 -0.016800 -8.401107 7.587911 -0.554739 -0.090118 -0.041415 -0.000000 0.000000 0.000000 0.000000 0.000000 0.000000 0.000000 13.220494 -15.857371 -0.314284 51.497756 3.826073 3.384683 1.786606 48.968335 0.002793 -2.278103 3.301553 -0.070568 0.107803 -0.132983 -0.000000 0.000000 0.000000 0.000000 0.000000 0.000000 0.000000 
-5.009268 17.047006 -1.547144 7.430505 -81.446555 -6.934692 -10.546084 3.568846 3.183218 0.688733 10.184551 -10.152820 -1.541519 0.004405 11.227400 0.929068 6.890215 0.297834 0.905600 -0.000000 -52.895900 9.717740 -2.285500 0.361571 11.021493 -14.520560 -5.271551 1.774654 0.125546 15.888498 -2.605889 -11.008244 -12.619388 0.690000 0.000000 -56.028300 -3.735633 -3.093145 -5.974138 -1.280291 -2.960052 -3.356131 -5.443988 -3.002776 2.606515 11.062034 -20.184890 -9.946293 -1.527116 -0.088577 -0.533560 0.000000 0.000000 0.000000 2.854856 15.462179 1.558721 -39.725375 9.539022 7.736292 -2.822985 -47.534696 -0.018114 -8.475344 7.612458 -0.561557 -0.094449 -0.045617 -0.000000 0.000000 0.000000 0.000000 0.000000 0.000000 0.000000 13.336957 -16.105380 -0.327554 52.356616 3.139435 3.354633 1.872565 48.077649 0.003448 -2.173844 3.385265 -0.069068 0.109285 -0.128370 -0.000000 0.000000 0.000000 0.000000 0.000000 0.000000 0.000000 
-5.005157 17.041943 -1.565349 7.874892 -81.740819 -7.526219 -10.543601 3.580823 3.104693 0.749920 10.531649 -10.201249 -1.538225 0.044646 11.664036 0.945952 7.005659 0.286242 0.912300 -0.000000 -53.178800 9.739478 -2.263296 0.349658 10.973882 -14.473508 -5.224522 1.768796 0.101561 16.149884 -2.570125 -10.806619 -12.702428 0.706200 -0.000000 -56.156300 -3.699007 -3.131502 -5.903332 -1.265746 -3.000919 -3.347360 -5.428325 -3.042844 2.595682 11.128675 -20.382995 -9.987962 -1.525865 -0.088079 -0.543294 0.000000 0.000000 0.000000 2.932121 15.441362 1.509615 -40.535053 10.175127 7.634626 -2.940803 -46.273589 -0.019317 -8.491731 7.622773 -0.563374 -0.099020 -0.049253 -0.000000 0.000000 0.000000 0.000000 0.000000 0.000000 0.000000 13.446125 -16.355742 -0.338291 53.181939 2.443320 3.331076 1.956393 47.201661 0.004026 -2.082250 3.447999 -0.067473 0.110798 -0.123734 -0.000000 0.000000 0.000000 0.000000 0.000000 0.000000 0.000000 
-5.001063 17.036430 -1.583032 8.354518 -82.056896 -8.165267 -10.542304 3.592853 3.012717 0.815229 10.979979 -10.263332 -1.541216 0.085099 12.115285 0.956689 7.074543 0.268918 0.911500 0.000000 -53.552901 9.763005 -2.243531 0.343020 10.921338 -14.421154 -5.173371 1.763299 0.076558 16.422630 -2.530678 -10.586423 -12.785597 0.721300 -0.000000 -56.311701 -3.655764 -3.164786 -5.829058 -1.249638 -3.037182 -3.338741 -5.409203 -3.078345 2.582409 11.190496 -20.582933 -10.030326 -1.523621 -0.087493 -0.553198 0.000000 0.000000 0.000000 3.012161 15.431926 1.455859 -41.369704 10.834971 7.472019 -3.055522 -45.014572 -0.020406 -8.449516 7.622664 -0.560491 -0.103780 -0.052421 -0.000000 0.000000 0.000000 0.000000 0.000000 0.000000 0.000000 13.548655 -16.605590 -0.346589 53.966255 1.739005 3.327619 2.037317 46.345751 0.004514 -2.007001 3.488180 -0.065778 0.112363 -0.119052 -0.000000 0.000000 0.000000 0.000000 0.000000 0.000000 0.000000 
-4.997168 17.030563 -1.600097 8.865044 -82.397322 -8.846034 -10.542744 3.604879 2.906001 0.887735 11.545421 -10.347996 -1.552677 0.126105 12.587180 0.957730 7.067894 0.244008 0.899101 0.000000 -54.009100 9.787263 -2.226711 0.344968 10.869187 -14.351519 -5.116788 1.757861 0.051186 16.702701 -2.489209 -10.355098 -12.869708 0.735500 -0.000001 -56.480100 -3.603293 -3.193682 -5.754073 -1.231364 -3.069752 -3.330714 -5.386692 -3.110214 2.567013 11.247840 -20.784380 -10.072852 -1.520614 -0.086853 -0.563109 0.000000 0.000000 0.000000 3.092554 15.436404 1.397548 -42.226189 11.526726 7.253548 -3.166060 -43.767856 -0.021387 -8.350034 7.616739 -0.553207 -0.108663 -0.055212 -0.000000 0.000000 0.000000 0.000000 0.000000 0.000000 0.000000 13.646577 -16.854679 -0.352662 54.701709 1.032609 3.358419 2.114980 45.514518 0.004920 -1.944043 3.503948 -0.064085 0.113934 -0.114282 -0.000000 0.000000 0.000000 0.000000 0.000000 0.000000 0.000000 
-4.993531 17.024446 -1.616572 9.410000 -82.764304 -9.570703 -10.544780 3.616994 2.783948 0.969586 12.234363 -10.463844 -1.574089 0.168613 13.091430 0.946638 6.964411 0.210382 0.872600 0.000000 -54.524200 9.811781 -2.212714 0.357853 10.821288 -14.253488 -5.052142 1.751905 0.026052 16.985972 -2.447559 -10.121178 -12.955758 0.749101 0.000000 -56.644700 -3.540741 -3.219719 -5.680294 -1.210606 -3.100232 -3.323302 -5.360737 -3.140072 2.550534 11.301644 -20.989364 -10.115328 -1.516912 -0.086166 -0.572961 0.000000 0.000000 0.000000 3.172386 15.458652 1.334762 -43.101756 12.257531 6.984689 -3.271480 -42.543610 -0.022267 -8.197696 7.609307 -0.542324 -0.113583 -0.057718 -0.000000 0.000000 0.000000 0.000000 0.000000 0.000000 0.000000 13.742846 -17.105862 -0.356975 55.381230 0.335320 3.439011 2.189386 44.710138 0.005256 -1.884550 3.495143 -0.061993 0.115438 -0.109385 -0.000000 0.000000 0.000000 0.000000 0.000000 0.000000 0.000000 
